# xmcd CD database file
#
# Track frame offsets:
#	150
#	17012
#	33545
#	51262
#	63760
#	78485
#	98737
#	115422
#	134217
#	147937
#
# Disc length: 2212 seconds
#
# Revision: 3
# Processed by: cddbd v1.4PL0 Copyright (c) Steve Scherf et al.
# Submitted via: CDex 1.50
#
DISCID=8c08a20a
DTITLE=Brady Seals - The Truth
DYEAR=1996
DGENRE=Country
TTITLE0=Natural Born Lovers
TTITLE1=The Truth
TTITLE2=Another You, Another Me
TTITLE3=Still Standing Tall
TTITLE4=Kentucky Boy
TTITLE5=Boy Oh Boy (Ain't That Just Like My Girl)
TTITLE6=She
TTITLE7=You Can Have Your Way With Me
TTITLE8=She Doesn't Love Here Anymore
TTITLE9=Junkie for Your Love
EXTD=YEAR: 1996
EXTT0=
EXTT1=
EXTT2=
EXTT3=
EXTT4=
EXTT5=
EXTT6=
EXTT7=
EXTT8=
EXTT9=
PLAYORDER=
